<svg id="visual" viewBox="0 0 900 450" width="900" height="450" xmlns="http://www.w3.org/2000/svg" xmlns:xlink="http://www.w3.org/1999/xlink" version="1.1"><g stroke-width="1" stroke-linejoin="bevel"><path d="M387 214L295 275L385 287Z" fill="#435360" stroke="#435360"></path><path d="M295 275L286 336L385 287Z" fill="#435360" stroke="#435360"></path><path d="M387 214L308 149L295 275Z" fill="#343d48" stroke="#343d48"></path><path d="M295 275L181 271L286 336Z" fill="#303842" stroke="#303842"></path><path d="M286 336L429 341L385 287Z" fill="#2c333c" stroke="#2c333c"></path><path d="M385 287L485 281L387 214Z" fill="#2c333c" stroke="#2c333c"></path><path d="M429 341L485 281L385 287Z" fill="#282e36" stroke="#282e36"></path><path d="M442 54L280 98L308 149Z" fill="#1d2025" stroke="#1d2025"></path><path d="M442 54L308 149L387 214Z" fill="#21252b" stroke="#21252b"></path><path d="M157 183L181 271L295 275Z" fill="#3b4854" stroke="#3b4854"></path><path d="M157 183L295 275L308 149Z" fill="#282e36" stroke="#282e36"></path><path d="M485 281L499 145L387 214Z" fill="#343d48" stroke="#343d48"></path><path d="M181 271L192 358L286 336Z" fill="#3b4854" stroke="#3b4854"></path><path d="M286 336L368 450L429 341Z" fill="#343d48" stroke="#343d48"></path><path d="M280 98L157 183L308 149Z" fill="#435360" stroke="#435360"></path><path d="M181 271L58 334L192 358Z" fill="#2c333c" stroke="#2c333c"></path><path d="M499 145L485 105L387 214Z" fill="#3f4d5a" stroke="#3f4d5a"></path><path d="M254 450L368 450L286 336Z" fill="#343d48" stroke="#343d48"></path><path d="M429 341L536 314L485 281Z" fill="#2c333c" stroke="#2c333c"></path><path d="M473 450L536 314L429 341Z" fill="#3f4d5a" stroke="#3f4d5a"></path><path d="M485 281L580 191L499 145Z" fill="#252930" stroke="#252930"></path><path d="M157 183L139 228L181 271Z" fill="#21252b" stroke="#21252b"></path><path d="M78 67L143 192L157 183Z" fill="#252930" stroke="#252930"></path><path d="M157 183L143 192L139 228Z" fill="#2c333c" stroke="#2c333c"></path><path d="M485 105L442 54L387 214Z" fill="#343d48" stroke="#343d48"></path><path d="M215 0L196 88L280 98Z" fill="#435360" stroke="#435360"></path><path d="M280 98L196 88L157 183Z" fill="#303842" stroke="#303842"></path><path d="M192 358L254 450L286 336Z" fill="#2c333c" stroke="#2c333c"></path><path d="M368 450L473 450L429 341Z" fill="#3f4d5a" stroke="#3f4d5a"></path><path d="M536 314L580 191L485 281Z" fill="#3b4854" stroke="#3b4854"></path><path d="M499 145L563 66L485 105Z" fill="#303842" stroke="#303842"></path><path d="M485 105L492 0L442 54Z" fill="#3f4d5a" stroke="#3f4d5a"></path><path d="M442 54L354 0L280 98Z" fill="#282e36" stroke="#282e36"></path><path d="M354 0L304 0L280 98Z" fill="#3b4854" stroke="#3b4854"></path><path d="M536 314L617 239L580 191Z" fill="#21252b" stroke="#21252b"></path><path d="M640 370L617 239L536 314Z" fill="#252930" stroke="#252930"></path><path d="M192 358L157 450L254 450Z" fill="#3b4854" stroke="#3b4854"></path><path d="M99 450L157 450L192 358Z" fill="#3f4d5a" stroke="#3f4d5a"></path><path d="M304 0L215 0L280 98Z" fill="#303842" stroke="#303842"></path><path d="M196 88L78 67L157 183Z" fill="#303842" stroke="#303842"></path><path d="M705 175L563 66L580 191Z" fill="#343d48" stroke="#343d48"></path><path d="M580 191L563 66L499 145Z" fill="#1d2025" stroke="#1d2025"></path><path d="M442 54L492 0L354 0Z" fill="#435360" stroke="#435360"></path><path d="M563 66L492 0L485 105Z" fill="#282e36" stroke="#282e36"></path><path d="M0 272L58 334L139 228Z" fill="#3b4854" stroke="#3b4854"></path><path d="M139 228L58 334L181 271Z" fill="#3f4d5a" stroke="#3f4d5a"></path><path d="M0 272L139 228L0 144Z" fill="#2c333c" stroke="#2c333c"></path><path d="M58 334L99 450L192 358Z" fill="#435360" stroke="#435360"></path><path d="M601 450L640 370L536 314Z" fill="#3b4854" stroke="#3b4854"></path><path d="M131 0L78 67L196 88Z" fill="#343d48" stroke="#343d48"></path><path d="M640 370L668 255L617 239Z" fill="#282e36" stroke="#282e36"></path><path d="M617 239L705 175L580 191Z" fill="#282e36" stroke="#282e36"></path><path d="M473 450L601 450L536 314Z" fill="#2c333c" stroke="#2c333c"></path><path d="M215 0L131 0L196 88Z" fill="#435360" stroke="#435360"></path><path d="M563 66L568 0L492 0Z" fill="#38434e" stroke="#38434e"></path><path d="M690 0L568 0L563 66Z" fill="#1d2025" stroke="#1d2025"></path><path d="M0 144L139 228L143 192Z" fill="#343d48" stroke="#343d48"></path><path d="M58 334L0 368L99 450Z" fill="#3f4d5a" stroke="#3f4d5a"></path><path d="M640 370L679 369L668 255Z" fill="#21252b" stroke="#21252b"></path><path d="M662 450L679 369L640 370Z" fill="#282e36" stroke="#282e36"></path><path d="M0 66L0 144L78 67Z" fill="#282e36" stroke="#282e36"></path><path d="M78 67L0 144L143 192Z" fill="#38434e" stroke="#38434e"></path><path d="M0 272L0 368L58 334Z" fill="#3f4d5a" stroke="#3f4d5a"></path><path d="M836 233L705 175L668 255Z" fill="#2c333c" stroke="#2c333c"></path><path d="M668 255L705 175L617 239Z" fill="#2c333c" stroke="#2c333c"></path><path d="M601 450L662 450L640 370Z" fill="#3b4854" stroke="#3b4854"></path><path d="M0 0L0 66L78 67Z" fill="#3f4d5a" stroke="#3f4d5a"></path><path d="M0 368L0 450L99 450Z" fill="#435360" stroke="#435360"></path><path d="M760 103L728 108L705 175Z" fill="#435360" stroke="#435360"></path><path d="M705 175L728 108L563 66Z" fill="#435360" stroke="#435360"></path><path d="M131 0L0 0L78 67Z" fill="#343d48" stroke="#343d48"></path><path d="M728 108L690 0L563 66Z" fill="#38434e" stroke="#38434e"></path><path d="M841 209L760 103L705 175Z" fill="#252930" stroke="#252930"></path><path d="M728 108L760 103L690 0Z" fill="#435360" stroke="#435360"></path><path d="M836 233L668 255L679 369Z" fill="#1d2025" stroke="#1d2025"></path><path d="M844 376L836 233L679 369Z" fill="#282e36" stroke="#282e36"></path><path d="M836 233L841 209L705 175Z" fill="#21252b" stroke="#21252b"></path><path d="M760 103L809 0L690 0Z" fill="#1d2025" stroke="#1d2025"></path><path d="M662 450L809 450L679 369Z" fill="#38434e" stroke="#38434e"></path><path d="M836 233L900 223L841 209Z" fill="#343d48" stroke="#343d48"></path><path d="M809 450L844 376L679 369Z" fill="#3f4d5a" stroke="#3f4d5a"></path><path d="M900 116L809 0L760 103Z" fill="#303842" stroke="#303842"></path><path d="M900 403L900 269L844 376Z" fill="#282e36" stroke="#282e36"></path><path d="M844 376L900 269L836 233Z" fill="#21252b" stroke="#21252b"></path><path d="M841 209L900 116L760 103Z" fill="#343d48" stroke="#343d48"></path><path d="M900 269L900 223L836 233Z" fill="#3b4854" stroke="#3b4854"></path><path d="M900 223L900 116L841 209Z" fill="#1d2025" stroke="#1d2025"></path><path d="M809 450L900 403L844 376Z" fill="#38434e" stroke="#38434e"></path><path d="M809 450L900 450L900 403Z" fill="#252930" stroke="#252930"></path><path d="M900 116L900 0L809 0Z" fill="#1d2025" stroke="#1d2025"></path></g></svg>